<?xml version="1.0" standalone="no"?>
<!DOCTYPE svg PUBLIC "-//W3C//DTD SVG 20010904//EN"
 "http://www.w3.org/TR/2001/REC-SVG-20010904/DTD/svg10.dtd">
<svg version="1.0" xmlns="http://www.w3.org/2000/svg"
 width="450.000000pt" height="452.000000pt" viewBox="0 0 450.000000 452.000000"
 preserveAspectRatio="xMidYMid meet">

<g transform="translate(0.000000,452.000000) scale(0.100000,-0.100000)"
fill="#000000" stroke="none">
<path d="M1943 4056 c-85 -27 -170 -101 -213 -186 -31 -61 -21 -127 27 -175
29 -29 38 -33 50 -23 8 6 53 14 100 16 81 4 86 4 78 -14 -11 -28 -34 -135 -35
-164 0 -24 -25 -65 -82 -141 -16 -20 -28 -42 -28 -49 0 -7 21 -32 46 -55 40
-38 44 -46 35 -64 -7 -12 -9 -22 -6 -22 3 -1 9 -2 14 -3 5 0 13 -4 17 -8 4 -5
-27 -8 -70 -8 -45 0 -75 4 -71 9 3 5 -5 13 -17 16 -13 4 -32 15 -43 25 -45 39
-150 54 -162 24 -4 -10 1 -22 11 -30 13 -9 20 -38 29 -121 6 -59 13 -99 15
-88 2 11 11 28 19 37 9 10 13 28 11 43 -4 17 -1 25 8 25 7 0 11 -6 8 -14 -4
-11 0 -13 15 -9 12 3 21 8 21 12 0 12 148 13 155 1 3 -5 1 -10 -5 -10 -6 0 -9
-4 -6 -8 6 -10 -51 -92 -64 -92 -5 0 -20 -21 -35 -47 -19 -35 -25 -57 -21 -81
3 -22 -2 -45 -17 -73 -18 -34 -19 -43 -9 -60 7 -11 13 -39 13 -62 0 -23 1 -59
2 -79 1 -38 -8 -57 -20 -45 -3 4 -6 28 -5 55 1 59 -13 87 -50 103 -25 10 -31
9 -42 -7 -18 -23 -10 -43 19 -50 13 -3 26 -12 29 -21 3 -8 11 -11 18 -7 9 4 8
2 -1 -7 -10 -11 -15 -11 -18 -1 -8 21 -23 13 -23 -12 0 -30 59 -80 84 -70 11
4 16 1 17 -12 0 -18 1 -18 8 0 7 18 8 18 14 2 12 -30 8 -76 -7 -82 -12 -5 -13
-11 -4 -30 13 -28 22 -31 143 -39 l90 -7 45 -47 c25 -25 60 -75 79 -111 19
-36 42 -74 52 -86 12 -13 21 -43 25 -82 4 -39 11 -62 19 -62 21 0 81 28 94 44
8 9 27 15 45 15 38 -2 124 8 136 16 5 3 11 1 15 -5 3 -5 11 -10 16 -10 6 0 8
4 5 9 -4 5 2 7 11 5 10 -3 36 5 58 17 67 36 117 61 162 80 36 15 43 16 43 4 0
-8 -7 -15 -16 -15 -11 0 -13 -6 -9 -19 4 -13 -1 -27 -13 -39 -28 -28 -100
-161 -77 -142 10 8 42 40 72 71 39 41 59 55 73 52 12 -3 28 5 44 22 19 20 32
26 58 23 40 -4 44 -22 6 -26 -36 -4 -49 -23 -42 -61 5 -23 11 -30 21 -27 8 4
23 6 34 6 10 0 19 7 19 15 0 15 10 14 70 -12 49 -22 69 -42 65 -65 -4 -21 7
-37 40 -56 20 -11 20 -11 -1 -12 -22 0 -34 -17 -34 -47 0 -18 60 -83 77 -83 7
0 13 -5 13 -10 0 -6 19 -31 41 -55 23 -25 37 -45 32 -45 -5 0 -20 12 -34 26
-34 36 -142 112 -186 131 -35 14 -40 14 -78 -5 -22 -12 -48 -23 -58 -26 -10
-3 -15 -10 -12 -16 4 -6 15 -4 29 5 29 19 102 10 136 -17 l24 -19 -32 -25
c-18 -14 -32 -31 -32 -37 0 -7 -10 -17 -22 -22 -35 -16 -46 -42 -24 -58 17
-12 17 -14 3 -20 -9 -3 -19 -1 -23 4 -3 6 -12 1 -22 -12 -14 -20 -13 -22 2
-31 13 -7 14 -13 5 -29 -8 -16 -7 -25 5 -38 18 -20 20 -31 7 -31 -5 0 -13 9
-16 21 -4 11 -12 18 -18 16 -18 -6 -19 -24 -3 -40 17 -17 10 -57 -10 -57 -10
0 -14 -11 -13 -38 2 -48 -8 -139 -16 -152 -3 -5 0 -10 8 -10 9 0 15 -10 15
-24 0 -13 6 -38 15 -55 9 -18 11 -30 4 -28 -20 4 -19 -31 2 -52 19 -19 19 -20
0 -37 -22 -20 -25 -74 -5 -119 11 -26 11 -33 -5 -56 -10 -14 -20 -37 -23 -51
-4 -25 -3 -26 36 -20 30 4 39 2 34 -6 -4 -7 -16 -12 -27 -12 -10 0 -19 -4 -19
-10 0 -5 3 -9 8 -9 4 1 17 1 30 0 34 -2 26 -18 -13 -25 -39 -8 -46 -21 -15
-31 11 -3 20 -12 20 -20 0 -7 10 -16 23 -20 15 -5 -11 -12 -88 -25 -194 -33
-239 -41 -244 -45 -2 -3 8 -9 22 -14 15 -6 34 -17 44 -26 10 -9 33 -27 51 -41
17 -14 30 -30 26 -35 -3 -5 -2 -9 3 -9 16 0 31 -52 26 -86 -4 -25 -1 -40 12
-54 14 -16 15 -24 5 -54 -6 -20 -16 -36 -21 -36 -15 0 -10 -22 8 -42 11 -13
16 -32 14 -54 l-3 -34 286 0 c169 1 288 5 291 10 8 13 65 13 65 0 0 -5 14 -10
30 -10 32 0 37 9 18 28 -9 9 -8 12 6 12 9 0 15 4 12 9 -3 5 -40 8 -81 6 -53
-2 -75 1 -75 10 0 6 3 15 8 19 4 4 7 12 7 17 0 11 8 12 45 4 17 -4 28 -10 25
-15 -3 -5 0 -12 6 -16 8 -4 9 -3 5 4 -5 8 5 12 33 12 22 0 43 -5 46 -10 4 -6
11 -7 18 -3 6 4 24 8 40 10 25 3 28 0 22 -19 -6 -17 -4 -20 9 -15 10 4 15 3
11 -3 -3 -6 -17 -10 -30 -10 -14 0 -29 -8 -34 -19 -10 -18 -4 -19 154 -20 99
0 166 3 170 9 3 6 13 10 21 10 8 0 12 -5 9 -10 -4 -7 69 -10 219 -9 187 1 226
3 226 15 0 8 9 14 21 14 15 0 19 -5 15 -15 -4 -12 4 -15 40 -15 l45 0 -3 58
c-3 48 -6 57 -20 54 -10 -2 -18 2 -18 8 0 5 9 10 20 10 20 0 20 7 20 269 l0
268 -42 -3 c-24 -2 -47 -9 -53 -16 -13 -16 -80 -21 -104 -8 -12 6 -30 6 -52
-1 -19 -6 -51 -10 -72 -10 -20 1 -47 -5 -58 -12 -20 -14 -20 -15 3 -21 13 -3
33 -6 46 -6 13 0 22 -6 22 -16 0 -10 -6 -13 -17 -10 -60 19 -113 23 -124 9
-10 -11 -14 -11 -20 -1 -13 20 -11 28 8 28 9 0 14 3 10 6 -3 4 -20 1 -37 -5
-31 -10 -31 -10 -25 19 6 26 4 30 -16 30 -22 0 -22 0 -3 -15 18 -14 18 -14
-11 -16 -24 -1 -25 -3 -7 -6 32 -6 27 -24 -5 -21 -16 1 -44 -4 -64 -12 -33
-12 -38 -11 -58 9 -15 15 -28 20 -39 15 -9 -4 -29 -7 -44 -6 -15 1 -29 -5 -32
-13 -7 -20 -87 -20 -129 -1 -18 8 -66 19 -107 25 -90 12 -110 1 -110 -61 0
-21 -4 -38 -10 -38 -14 0 -12 55 3 93 8 18 20 56 27 85 11 48 15 53 34 47 11
-4 86 -9 166 -12 80 -3 146 -8 148 -12 1 -4 26 -4 55 0 53 9 113 3 133 -12 16
-13 153 -9 190 5 9 3 17 -1 21 -12 9 -23 23 -32 52 -32 20 0 21 2 11 15 -9 10
-9 15 -1 15 6 0 11 5 11 11 0 7 -11 9 -30 5 -31 -6 -41 7 -16 21 8 5 -25 9
-77 9 -94 1 -148 7 -165 18 -5 3 -15 -1 -22 -9 -17 -21 -30 -19 -30 5 0 11 -7
20 -16 20 -9 0 -12 -5 -8 -11 5 -8 -3 -10 -27 -5 -19 4 -50 9 -69 11 -19 2
-64 8 -100 14 -36 5 -101 10 -145 9 -94 -2 -108 3 -96 35 5 13 9 98 9 190 0
91 3 171 7 176 3 6 1 28 -4 49 -6 21 -13 67 -17 102 -3 36 -21 104 -40 152
-19 48 -34 92 -34 98 0 6 -9 29 -21 51 l-20 41 208 -6 c114 -4 262 -11 328
-16 66 -5 181 -12 255 -14 74 -3 201 -8 283 -12 l147 -7 0 66 0 67 -52 2 c-29
0 -64 2 -78 3 -77 7 -300 18 -470 22 -107 3 -200 10 -207 15 -8 6 -19 5 -33
-2 -11 -6 -24 -9 -28 -6 -5 3 -85 6 -178 7 -93 1 -174 5 -180 10 -5 5 -22 7
-37 6 -24 -2 -32 6 -68 71 -33 59 -37 73 -22 69 10 -3 79 -8 153 -11 142 -7
856 -41 1073 -52 l127 -6 0 51 c0 51 0 51 -32 52 l-33 1 30 7 30 6 3 98 c2 74
0 97 -10 97 -9 0 -9 3 2 10 8 5 12 11 10 13 -3 3 -77 7 -165 10 -88 3 -171 8
-184 13 -17 5 -22 4 -17 -4 4 -7 3 -12 -3 -12 -5 0 -12 6 -14 13 -4 10 -6 10
-6 0 -1 -7 -8 -13 -16 -13 -8 0 -15 -6 -15 -14 0 -8 -4 -18 -10 -21 -6 -4 -9
3 -7 16 2 20 -4 24 -38 30 -29 5 -46 2 -64 -10 -15 -9 -22 -11 -18 -3 5 6 5
12 0 13 -4 0 -23 2 -40 5 -37 4 -46 -12 -10 -19 20 -4 19 -4 -4 -6 -16 0 -29
5 -33 14 -3 8 -10 15 -16 15 -6 0 -8 -4 -5 -10 3 -6 -4 -11 -17 -12 -35 -2
-41 -1 -105 18 -16 4 -23 2 -23 -7 0 -10 -3 -10 -8 -3 -7 11 -263 26 -289 17
-7 -3 -13 -11 -13 -19 0 -8 -5 -14 -11 -14 -6 0 -8 7 -5 16 5 13 1 15 -21 11
-18 -3 -31 0 -39 11 -10 13 -16 14 -24 6 -9 -9 -7 -17 9 -33 26 -26 26 -31 1
-24 -11 3 -27 15 -36 27 -15 21 -15 21 -29 2 -8 -11 -15 -14 -15 -8 0 8 -17
12 -47 12 -118 1 -158 -2 -161 -11 -3 -6 -9 -5 -18 2 -10 8 -14 8 -14 0 0 -6
-7 -11 -15 -11 -9 0 -13 7 -9 18 2 9 -1 7 -7 -6 -14 -26 -45 -25 -43 1 1 9 -3
17 -10 17 -15 0 -81 141 -101 216 -9 32 -19 91 -22 131 -6 71 -5 72 21 84 17
8 26 20 26 34 0 37 38 145 70 196 16 27 32 60 36 74 3 14 10 28 15 31 5 3 9
12 9 21 0 9 7 25 16 35 13 13 16 35 15 81 -1 35 2 74 7 87 6 16 3 50 -8 100
-16 71 -16 78 -1 88 14 9 13 13 -11 35 -22 19 -27 32 -26 68 1 51 -16 122 -31
127 -6 2 -11 12 -11 22 0 19 -16 35 -35 35 -5 0 -18 15 -27 34 -69 138 -329
279 -563 305 -121 14 -281 15 -322 2z m-259 -867 c33 -15 24 -29 -20 -29 -27
0 -34 4 -34 20 0 23 17 25 54 9z m602 -105 c-25 -18 -37 -18 -30 0 6 15 34 26
44 18 3 -2 -4 -10 -14 -18z m1169 -862 c-6 -7 -34 11 -29 19 3 5 11 3 19 -4 7
-6 12 -13 10 -15z m141 -4 c-10 -6 -20 -7 -24 -3 -9 8 20 25 31 18 5 -3 2 -10
-7 -15z m-533 0 c4 -10 8 -9 16 2 10 13 12 13 21 0 15 -24 -5 -33 -39 -16 -34
18 -39 26 -17 26 8 0 17 -6 19 -12z m127 8 c0 -3 -4 -8 -10 -11 -5 -3 -10 -1
-10 4 0 6 5 11 10 11 6 0 10 -2 10 -4z m837 -2 c-3 -3 -12 -4 -19 -1 -8 3 -5
6 6 6 11 1 17 -2 13 -5z m-887 -8 c0 -3 -4 -8 -10 -11 -5 -3 -10 -1 -10 4 0 6
5 11 10 11 6 0 10 -2 10 -4z m-174 -41 c-3 -19 -1 -35 2 -36 24 -2 57 -10 61
-14 12 -13 -11 -14 -63 -3 -43 8 -54 13 -42 20 9 5 14 13 11 18 -5 7 21 45 33
49 1 1 0 -15 -2 -34z m1484 11 c0 -3 -4 -8 -10 -11 -5 -3 -10 -1 -10 4 0 6 5
11 10 11 6 0 10 -2 10 -4z m-1430 -20 c0 -3 -4 -8 -10 -11 -5 -3 -10 -1 -10 4
0 6 5 11 10 11 6 0 10 -2 10 -4z m-121 -22 c2 -2 -18 -4 -45 -4 -34 0 -44 3
-34 9 12 9 68 4 79 -5z m-69 -28 c0 -2 -6 -16 -14 -31 -14 -26 -15 -26 -25 -7
-15 28 -14 35 4 28 8 -3 15 -1 15 4 0 6 5 10 10 10 6 0 10 -2 10 -4z m373 -31
c-25 -34 -34 -31 -16 5 8 17 19 28 24 25 5 -4 1 -17 -8 -30z m277 6 c0 -5 -7
-14 -15 -21 -16 -14 -18 -10 -9 14 6 17 24 22 24 7z m832 -36 c4 -17 -1 -26
-20 -35 -29 -13 -49 5 -30 28 8 9 13 10 18 2 5 -8 9 -7 13 3 3 8 0 20 -6 26
-9 9 -8 11 4 6 10 -4 19 -17 21 -30z m-1219 -19 c3 -8 3 -17 0 -20 -9 -9 -34
15 -27 25 8 13 21 11 27 -5z m1292 4 c3 -5 1 -10 -4 -10 -6 0 -11 5 -11 10 0
6 2 10 4 10 3 0 8 -4 11 -10z m-1398 -16 c-3 -3 -12 -4 -19 -1 -8 3 -5 6 6 6
11 1 17 -2 13 -5z m143 -46 c0 -5 -7 -3 -15 6 -8 8 -15 18 -15 22 0 3 7 1 15
-6 8 -7 15 -17 15 -22z m1180 12 c0 -12 -7 -20 -16 -20 -11 0 -14 -5 -10 -16
4 -12 1 -14 -14 -9 -11 4 -20 2 -20 -4 0 -6 -18 -10 -42 -10 -30 2 -35 3 -15
6 15 2 27 8 27 13 0 5 13 11 29 15 17 3 31 14 34 26 7 25 27 25 27 -1z m33 6
c6 -15 -1 -26 -15 -26 -4 0 -8 9 -8 20 0 23 15 27 23 6z m37 0 c0 -3 -4 -8
-10 -11 -5 -3 -10 -1 -10 4 0 6 5 11 10 11 6 0 10 -2 10 -4z m-650 -37 c0 -6
-4 -7 -10 -4 -5 3 -10 11 -10 16 0 6 5 7 10 4 6 -3 10 -11 10 -16z m35 11 c3
-5 1 -10 -4 -10 -6 0 -11 5 -11 10 0 6 2 10 4 10 3 0 8 -4 11 -10z m372 4 c-3
-3 -12 -4 -19 -1 -8 3 -5 6 6 6 11 1 17 -2 13 -5z m-1008 -176 c-5 -10 -11
-18 -12 -18 -2 0 -3 8 -3 18 0 10 6 19 13 19 8 0 9 -6 2 -19z m1229 -1320 c9
-9 12 -9 12 0 0 7 7 12 15 12 22 0 18 -13 -7 -29 -16 -10 -23 -10 -26 -2 -2 6
-13 11 -23 11 -11 0 -17 5 -14 10 8 14 28 13 43 -2z m-554 -74 c9 -3 16 -12
16 -20 0 -19 -7 -18 -37 6 -26 20 -14 28 21 14z m94 -41 c-2 -22 -8 -28 -28
-28 -18 0 -26 6 -28 22 -3 21 1 23 51 32 5 0 7 -11 5 -26z m97 8 c3 -5 1 -12
-5 -16 -5 -3 -10 1 -10 9 0 18 6 21 15 7z m-401 -24 c-3 -9 -13 -16 -22 -16
-9 0 -30 -3 -47 -7 -27 -7 -29 -6 -16 9 7 10 26 17 42 17 15 0 31 5 34 11 10
15 17 5 9 -14z m640 -19 c8 -32 7 -40 -3 -34 -11 7 -21 56 -11 56 4 0 10 -10
14 -22z m-514 2 c-19 -13 -30 -13 -30 0 0 6 10 10 23 10 18 0 19 -2 7 -10z
m728 -8 c2 -7 -3 -12 -12 -12 -9 0 -16 7 -16 16 0 17 22 14 28 -4z m-674 -1
c3 -5 -5 -11 -19 -13 -20 -4 -23 -3 -14 8 13 16 25 18 33 5z m595 -12 c-16
-10 -23 -4 -14 10 3 6 11 8 17 5 6 -4 5 -9 -3 -15z m-325 -25 c5 -12 2 -15
-10 -10 -8 3 -25 6 -37 6 -18 0 -19 2 -7 10 23 15 47 12 54 -6z m-252 -19 c0
-5 -5 -11 -11 -13 -6 -2 -11 4 -11 13 0 9 5 15 11 13 6 -2 11 -8 11 -13z m198
-15 c0 -5 -21 -10 -47 -9 -36 0 -43 3 -28 9 28 12 75 12 75 0z m-230 -19 c0
-9 -34 -21 -60 -21 -11 1 -10 4 4 15 22 16 56 20 56 6z m100 -11 c0 -5 -2 -10
-4 -10 -3 0 -8 5 -11 10 -3 6 -1 10 4 10 6 0 11 -4 11 -10z m-447 -19 c-3 -11
-11 -22 -18 -24 -10 -4 -10 0 -1 19 13 29 26 32 19 5z m387 -1 c0 -5 -8 -10
-17 -10 -15 0 -16 2 -3 10 19 12 20 12 20 0z m340 6 c0 -2 -7 -7 -16 -10 -8
-3 -12 -2 -9 4 6 10 25 14 25 6z m70 -11 c0 -13 -4 -14 -20 -5 -11 6 -20 13
-20 15 0 3 9 5 20 5 11 0 20 -7 20 -15z m50 -14 c0 -5 -7 -11 -15 -15 -15 -5
-20 5 -8 17 9 10 23 9 23 -2z m-597 -56 c-24 -32 -38 -32 -17 0 9 14 20 25 26
25 5 0 1 -11 -9 -25z m657 -6 c0 -6 -4 -7 -10 -4 -5 3 -10 11 -10 16 0 6 5 7
10 4 6 -3 10 -11 10 -16z m-231 -8 c10 -7 10 -12 -5 -30 -25 -28 -31 -27 -31
9 0 30 11 37 36 21z m271 5 c0 -3 -4 -8 -10 -11 -5 -3 -10 -1 -10 4 0 6 5 11
10 11 6 0 10 -2 10 -4z m-184 -21 l29 -15 -30 2 c-17 1 -36 -2 -44 -6 -10 -7
-10 -4 1 13 7 12 13 21 14 21 1 0 15 -7 30 -15z m-427 -14 c28 2 54 0 57 -4
11 -11 -16 -36 -32 -30 -8 3 -20 -1 -27 -10 -10 -13 -17 -13 -47 -2 l-35 13
33 1 c38 1 35 21 -3 21 -25 0 -39 12 -28 24 3 3 12 1 19 -5 7 -6 36 -9 63 -8z
m556 -1 c-3 -5 -11 -10 -16 -10 -6 0 -7 5 -4 10 3 6 11 10 16 10 6 0 7 -4 4
-10z m57 -52 c-6 -6 -15 -8 -19 -4 -4 4 -1 11 7 16 19 12 27 3 12 -12z m-77
-6 c-3 -3 -11 0 -18 7 -9 10 -8 11 6 5 10 -3 15 -9 12 -12z m-228 -8 c-3 -3
-12 -4 -19 -1 -8 3 -5 6 6 6 11 1 17 -2 13 -5z"/>
<path d="M1620 2839 c0 -8 -12 -10 -36 -6 -47 8 -41 -13 10 -32 42 -16 62 -6
51 28 -7 22 -25 29 -25 10z"/>
<path d="M2622 2042 c-39 -26 -72 -51 -72 -56 0 -5 6 -3 14 3 7 6 34 22 60 36
49 26 82 53 74 60 -2 2 -36 -17 -76 -43z"/>
<path d="M2108 2033 c-14 -16 -33 -43 -43 -62 -19 -38 -26 -122 -10 -127 6 -2
10 20 10 54 0 61 19 99 63 123 12 7 22 18 22 26 0 20 -14 16 -42 -14z"/>
<path d="M1738 2033 c7 -3 16 -2 19 1 4 3 -2 6 -13 5 -11 0 -14 -3 -6 -6z"/>
<path d="M50 1930 c0 -8 -9 -10 -25 -6 -24 6 -25 5 -25 -48 0 -37 4 -56 14
-59 8 -3 128 -6 268 -7 139 -1 296 -5 348 -9 52 -4 155 -9 229 -10 74 -1 137
-4 140 -6 3 -1 98 -6 211 -11 113 -4 216 -8 230 -9 14 -1 76 -3 139 -3 98 -2
112 -4 101 -17 -6 -8 -10 -20 -8 -27 3 -7 18 7 34 32 16 25 35 51 42 58 16 18
35 53 30 58 -2 2 -105 6 -229 9 -123 3 -251 8 -284 11 -33 3 -67 5 -75 4 -8 0
-57 0 -107 1 -70 0 -93 -3 -93 -13 0 -10 -3 -9 -10 2 -7 11 -38 15 -140 17
-71 1 -139 7 -150 13 -16 8 -20 8 -20 -3 0 -11 -10 -12 -52 -6 -29 5 -107 11
-173 14 -283 12 -341 15 -367 21 -18 4 -28 1 -28 -6z m537 -72 c-3 -8 -6 -5
-6 6 -1 11 2 17 5 13 3 -3 4 -12 1 -19z"/>
<path d="M3883 1863 c9 -2 23 -2 30 0 6 3 -1 5 -18 5 -16 0 -22 -2 -12 -5z"/>
<path d="M4195 1850 c189 -11 305 -11 305 0 0 6 -76 9 -212 8 -198 -1 -205 -2
-93 -8z"/>
<path d="M2674 1577 c-11 -12 -32 -40 -46 -62 -96 -147 -145 -228 -171 -280
-17 -33 -33 -62 -37 -65 -3 -3 -15 -29 -26 -59 l-20 -54 4 93 c3 52 0 101 -6
113 -46 98 -47 102 -46 197 0 86 -1 92 -12 65 -15 -34 -17 -184 -5 -260 10
-59 7 -69 -21 -54 -16 8 -22 8 -29 -2 -8 -14 -8 -14 -24 36 -2 8 -9 15 -15 15
-10 0 -15 -32 -12 -77 0 -17 -5 -23 -19 -23 -10 0 -19 7 -19 15 0 8 -4 15 -10
15 -5 0 -10 -7 -10 -15 0 -9 -7 -18 -16 -22 -8 -3 -13 -12 -10 -19 6 -17 -6
-18 -21 -3 -15 15 -37 1 -24 -15 11 -14 4 -26 -24 -42 -11 -6 -22 -22 -25 -35
-4 -14 -14 -25 -27 -27 -15 -2 -19 -8 -16 -21 3 -10 0 -22 -6 -25 -6 -4 -11
-20 -11 -37 0 -16 -5 -29 -11 -29 -6 0 -8 7 -5 16 3 9 6 51 6 95 0 67 3 82 20
96 13 11 20 30 20 53 0 31 -4 37 -32 48 -18 6 -35 8 -40 4 -4 -4 -30 -50 -57
-102 -33 -61 -51 -87 -51 -72 0 36 22 116 35 127 7 6 18 25 24 44 9 27 8 36
-1 43 -35 21 -40 12 -82 -142 -32 -117 -38 -308 -11 -330 24 -20 27 -14 64
127 15 57 29 62 24 10 -6 -80 -14 -107 -28 -107 -9 0 -15 -10 -15 -24 0 -17 9
-28 30 -38 32 -14 40 -28 15 -28 -12 0 -11 -4 5 -20 26 -26 31 -25 26 5 -3 14
-1 25 4 25 20 0 159 -48 171 -59 28 -24 152 -101 163 -101 17 0 66 -24 66 -32
0 -6 -110 16 -140 29 -8 3 -49 8 -91 12 l-76 6 16 -22 c9 -12 48 -34 86 -49
72 -29 95 -41 95 -53 0 -8 -116 5 -167 19 -26 6 -33 5 -33 -6 0 -8 -11 -20
-25 -26 -14 -6 -25 -15 -25 -19 0 -4 -3 -14 -6 -22 -9 -24 20 -27 113 -11 48
9 108 18 132 21 l43 6 -18 -22 c-10 -11 -28 -21 -40 -21 -38 0 -124 -32 -124
-47 0 -13 -17 -18 -53 -15 -22 2 -58 -30 -49 -43 14 -20 85 -46 143 -52 72 -7
79 -25 9 -22 -40 2 -53 -1 -65 -17 -30 -40 -7 -83 48 -89 19 -1 43 -8 53 -14
17 -9 16 -10 -8 -11 -16 0 -28 4 -28 9 0 4 -19 5 -42 1 -28 -6 -45 -4 -50 3
-6 10 -27 17 -58 19 -8 1 -20 8 -26 16 -8 12 -13 9 -28 -14 -17 -26 -18 -28
-2 -40 11 -8 13 -13 5 -16 -7 -2 -9 -12 -5 -26 6 -18 15 -22 53 -22 39 0 44 2
33 15 -10 12 -9 15 4 15 10 0 15 4 12 9 -4 5 3 7 14 4 11 -3 23 -9 26 -14 3
-5 15 -9 27 -9 18 0 19 -2 7 -10 -10 -6 89 -10 289 -10 269 0 302 2 297 15
-27 72 -54 223 -71 400 -4 39 -11 75 -15 80 -5 6 -15 86 -24 179 -13 141 -13
173 -2 195 7 14 17 37 20 51 7 24 6 24 -8 6 -15 -19 -16 -18 -16 12 0 39 21
92 43 111 25 20 20 35 -5 17 -40 -28 -43 -17 -5 22 20 21 37 45 37 54 0 12 -8
8 -30 -14 -44 -43 -51 -25 -8 20 20 20 41 48 48 62 9 19 2 15 -32 -17 -24 -24
-47 -43 -52 -43 -14 0 24 53 61 86 20 17 34 37 31 44 -3 9 -17 0 -42 -24 -55
-56 -56 -35 -2 35 33 43 50 75 56 107 4 26 20 80 35 120 15 40 25 75 23 78 -3
2 -13 -6 -24 -19z m-44 -179 c-1 -15 -79 -107 -79 -93 -1 11 66 105 74 105 3
0 5 -6 5 -12z m-540 -408 c20 -16 21 -19 5 -13 -32 10 -62 33 -45 33 8 0 26
-9 40 -20z m-118 -145 c-6 -34 -12 -32 -12 6 0 16 4 28 9 25 4 -3 6 -17 3 -31z
m308 -415 c24 -8 24 -8 -7 -9 -17 -1 -35 4 -38 9 -7 11 9 11 45 0z"/>
<path d="M2739 1487 c-30 -79 -112 -396 -107 -415 1 -4 -4 -24 -11 -45 -15
-45 -11 -53 19 -37 27 15 37 6 17 -15 -20 -20 -89 -163 -85 -176 2 -6 20 1 41
15 21 14 42 26 47 26 14 0 60 96 76 155 8 28 14 69 14 92 0 31 5 45 19 52 10
6 21 22 23 36 5 24 4 24 -12 10 -27 -25 -43 -19 -35 13 4 15 10 56 12 92 2 36
6 94 9 130 3 36 2 75 -3 87 -7 20 -9 18 -24 -20z"/>
<path d="M659 1509 c-19 -6 -15 -7 18 -8 23 -1 48 -4 57 -7 9 -3 16 -2 16 4 0
13 -59 20 -91 11z"/>
<path d="M1567 1443 c-4 -3 -7 -25 -7 -47 0 -23 -7 -59 -15 -81 -8 -22 -14
-51 -14 -65 1 -14 7 -2 16 30 8 30 20 62 27 70 25 31 37 71 25 86 -13 15 -22
18 -32 7z"/>
<path d="M2431 1399 c-17 -55 -7 -60 18 -10 25 47 25 51 8 51 -8 0 -19 -18
-26 -41z"/>
<path d="M3905 1430 c3 -5 13 -10 21 -10 8 0 14 5 14 10 0 6 -9 10 -21 10 -11
0 -17 -4 -14 -10z"/>
<path d="M4399 1424 c-1 -2 -2 -7 -3 -11 -1 -5 -5 -13 -9 -20 -10 -16 -1 -20
61 -27 l52 -5 0 32 c0 32 -1 32 -50 34 -28 0 -51 -1 -51 -3z"/>
<path d="M2871 1404 c0 -11 3 -14 6 -6 3 7 2 16 -1 19 -3 4 -6 -2 -5 -13z"/>
<path d="M1660 1370 c0 -5 -7 -10 -16 -12 -9 -2 -29 -34 -45 -71 -36 -86 -39
-164 -8 -206 14 -19 23 -49 26 -87 3 -32 10 -68 16 -79 11 -20 12 -20 15 3 2
12 -4 61 -13 107 -16 78 -16 88 -1 132 9 25 16 54 16 64 0 9 11 39 25 66 14
27 23 56 20 65 -7 18 -35 33 -35 18z m-10 -67 c0 -32 -35 -143 -44 -140 -30
10 -2 147 30 147 8 0 14 -3 14 -7z"/>
<path d="M3795 1360 c3 -5 8 -10 11 -10 2 0 4 5 4 10 0 6 -5 10 -11 10 -5 0
-7 -4 -4 -10z"/>
<path d="M2436 1325 c-10 -15 -16 -31 -13 -38 2 -6 11 4 20 22 21 42 16 51 -7
16z"/>
<path d="M4195 1330 c4 -6 11 -8 16 -5 14 9 11 15 -7 15 -8 0 -12 -5 -9 -10z"/>
<path d="M4075 1320 c-3 -4 11 -8 31 -8 39 0 39 9 -1 13 -14 2 -27 0 -30 -5z"/>
<path d="M1731 1301 c-12 -21 -26 -111 -17 -111 11 0 46 114 37 123 -6 6 -13
2 -20 -12z"/>
<path d="M4268 1313 c7 -3 16 -2 19 1 4 3 -2 6 -13 5 -11 0 -14 -3 -6 -6z"/>
<path d="M1771 1268 c-26 -68 -41 -97 -59 -114 -21 -20 -26 -46 -24 -132 3
-74 18 -57 26 30 7 68 39 158 56 158 8 0 30 53 30 71 0 18 -21 8 -29 -13z"/>
<path d="M4451 1281 c-43 -12 -37 -31 9 -31 33 0 41 3 38 17 -4 20 -15 23 -47
14z"/>
<path d="M870 1270 c0 -5 5 -10 10 -10 6 0 10 5 10 10 0 6 -4 10 -10 10 -5 0
-10 -4 -10 -10z"/>
<path d="M4345 1250 c3 -5 10 -10 16 -10 5 0 9 5 9 10 0 6 -7 10 -16 10 -8 0
-12 -4 -9 -10z"/>
<path d="M1522 1200 c0 -14 2 -19 5 -12 2 6 2 18 0 25 -3 6 -5 1 -5 -13z"/>
<path d="M3840 1210 c0 -5 5 -10 10 -10 6 0 10 5 10 10 0 6 -4 10 -10 10 -5 0
-10 -4 -10 -10z"/>
<path d="M4233 1203 c9 -2 23 -2 30 0 6 3 -1 5 -18 5 -16 0 -22 -2 -12 -5z"/>
<path d="M1024 1186 c-4 -10 -2 -22 4 -28 8 -8 13 -7 18 6 4 10 2 22 -4 28 -8
8 -13 7 -18 -6z"/>
<path d="M1512 1135 c0 -16 2 -22 5 -12 2 9 2 23 0 30 -3 6 -5 -1 -5 -18z"/>
<path d="M4258 1143 c12 -2 30 -2 40 0 9 3 -1 5 -23 4 -22 0 -30 -2 -17 -4z"/>
<path d="M4435 1140 c-3 -5 -1 -10 4 -10 6 0 11 5 11 10 0 6 -2 10 -4 10 -3 0
-8 -4 -11 -10z"/>
<path d="M4088 1103 c7 -3 16 -2 19 1 4 3 -2 6 -13 5 -11 0 -14 -3 -6 -6z"/>
<path d="M4128 1103 c6 -2 18 -2 25 0 6 3 1 5 -13 5 -14 0 -19 -2 -12 -5z"/>
<path d="M1525 1066 c2 -22 9 -44 14 -49 7 -7 7 3 0 29 -15 57 -20 64 -14 20z"/>
<path d="M3450 1090 c0 -5 7 -10 16 -10 8 0 12 5 9 10 -3 6 -10 10 -16 10 -5
0 -9 -4 -9 -10z"/>
<path d="M710 1060 c0 -5 4 -10 9 -10 6 0 13 5 16 10 3 6 -1 10 -9 10 -9 0
-16 -4 -16 -10z"/>
<path d="M3912 1041 c2 -7 7 -12 11 -12 12 1 9 15 -3 20 -7 2 -11 -2 -8 -8z"/>
<path d="M3953 1034 c4 -4 37 -8 74 -10 46 -2 63 0 53 6 -16 11 -137 14 -127
4z"/>
<path d="M4135 1031 c-32 -7 -37 -24 -8 -29 20 -3 61 22 47 30 -5 2 -22 2 -39
-1z"/>
<path d="M4348 1023 c6 -2 18 -2 25 0 6 3 1 5 -13 5 -14 0 -19 -2 -12 -5z"/>
<path d="M4423 1013 c9 -2 25 -2 35 0 9 3 1 5 -18 5 -19 0 -27 -2 -17 -5z"/>
<path d="M2565 1000 c-3 -5 -1 -10 4 -10 6 0 11 5 11 10 0 6 -2 10 -4 10 -3 0
-8 -4 -11 -10z"/>
<path d="M3998 963 c7 -3 16 -2 19 1 4 3 -2 6 -13 5 -11 0 -14 -3 -6 -6z"/>
<path d="M4044 959 c-13 -5 -7 -8 24 -8 23 -1 42 1 42 3 0 8 -48 12 -66 5z"/>
<path d="M4394 961 c5 -8 56 -3 56 5 0 2 -14 4 -31 4 -16 0 -28 -4 -25 -9z"/>
<path d="M4130 950 c8 -5 29 -10 45 -10 23 0 27 3 15 10 -8 5 -28 10 -45 10
-23 0 -27 -3 -15 -10z"/>
<path d="M4265 940 c3 -5 8 -10 11 -10 2 0 4 5 4 10 0 6 -5 10 -11 10 -5 0 -7
-4 -4 -10z"/>
<path d="M635 920 c-3 -5 -1 -10 4 -10 6 0 11 5 11 10 0 6 -2 10 -4 10 -3 0
-8 -4 -11 -10z"/>
<path d="M820 920 c0 -5 6 -10 14 -10 8 0 18 5 21 10 3 6 -3 10 -14 10 -12 0
-21 -4 -21 -10z"/>
<path d="M886 922 c-3 -5 0 -14 7 -20 17 -13 96 -22 103 -11 3 5 24 10 47 10
41 2 41 2 -13 10 -30 5 -74 11 -96 15 -24 3 -44 2 -48 -4z"/>
<path d="M1692 891 c2 -27 8 -46 17 -49 10 -3 11 3 6 29 -12 58 -25 69 -23 20z"/>
<path d="M4425 910 c4 -6 11 -8 16 -5 14 9 11 15 -7 15 -8 0 -12 -5 -9 -10z"/>
<path d="M1100 900 c0 -5 14 -10 32 -10 36 0 35 4 -4 14 -17 4 -28 2 -28 -4z"/>
<path d="M3530 900 c0 -5 5 -10 10 -10 6 0 10 5 10 10 0 6 -4 10 -10 10 -5 0
-10 -4 -10 -10z"/>
<path d="M1505 890 c3 -5 19 -10 36 -10 16 0 29 5 29 10 0 6 -16 10 -36 10
-21 0 -33 -4 -29 -10z"/>
<path d="M678 883 c7 -3 16 -2 19 1 4 3 -2 6 -13 5 -11 0 -14 -3 -6 -6z"/>
<path d="M80 856 c0 -9 5 -16 10 -16 6 0 10 4 10 9 0 6 -4 13 -10 16 -5 3 -10
-1 -10 -9z"/>
<path d="M381 857 c-13 -16 -5 -27 20 -27 10 0 23 -8 28 -17 9 -16 10 -16 11
5 0 12 -5 22 -11 22 -6 0 -9 7 -5 15 7 19 -27 20 -43 2z"/>
<path d="M1035 861 c-6 -11 9 -23 19 -14 9 9 7 23 -3 23 -6 0 -12 -4 -16 -9z"/>
<path d="M1080 855 c0 -13 4 -14 20 -5 11 6 20 13 20 15 0 3 -9 5 -20 5 -11 0
-20 -7 -20 -15z"/>
<path d="M115 849 c-10 -15 3 -25 16 -12 7 7 7 13 1 17 -6 3 -14 1 -17 -5z"/>
<path d="M170 850 c0 -5 5 -10 10 -10 6 0 10 5 10 10 0 6 -4 10 -10 10 -5 0
-10 -4 -10 -10z"/>
<path d="M623 853 c9 -2 23 -2 30 0 6 3 -1 5 -18 5 -16 0 -22 -2 -12 -5z"/>
<path d="M4206 852 c-3 -6 -1 -14 5 -17 15 -10 25 3 12 16 -7 7 -13 7 -17 1z"/>
<path d="M235 840 c-3 -5 -1 -10 4 -10 6 0 11 5 11 10 0 6 -2 10 -4 10 -3 0
-8 -4 -11 -10z"/>
<path d="M1395 840 c-3 -5 1 -10 9 -10 9 0 16 5 16 10 0 6 -4 10 -9 10 -6 0
-13 -4 -16 -10z"/>
<path d="M4161 843 c-1 -6 -4 -18 -7 -27 -4 -11 -1 -16 10 -16 18 0 19 6 6 35
-5 11 -9 15 -9 8z"/>
<path d="M338 833 c7 -3 16 -2 19 1 4 3 -2 6 -13 5 -11 0 -14 -3 -6 -6z"/>
<path d="M3745 830 c-17 -7 -14 -9 13 -9 20 -1 31 3 27 9 -7 12 -13 12 -40 0z"/>
<path d="M4358 833 c6 -2 18 -2 25 0 6 3 1 5 -13 5 -14 0 -19 -2 -12 -5z"/>
<path d="M1015 816 c17 -9 36 -15 43 -16 6 0 12 -5 12 -11 0 -5 5 -7 10 -4 18
11 11 23 -17 28 -16 3 -39 8 -53 11 -21 5 -20 4 5 -8z"/>
<path d="M3629 817 c5 -5 19 -7 32 -5 20 3 19 5 -9 9 -20 3 -29 2 -23 -4z"/>
<path d="M1146 812 c-3 -5 8 -6 25 -4 16 2 29 6 29 8 0 8 -49 4 -54 -4z"/>
<path d="M20 788 c0 -19 2 -20 10 -8 13 19 13 30 0 30 -5 0 -10 -10 -10 -22z"/>
<path d="M595 799 c-10 -15 1 -23 20 -15 9 3 13 10 10 16 -8 13 -22 13 -30 -1z"/>
<path d="M2665 800 c-3 -5 -1 -10 4 -10 6 0 11 5 11 10 0 6 -2 10 -4 10 -3 0
-8 -4 -11 -10z"/>
<path d="M1490 790 c-11 -8 -8 -9 11 -4 15 3 30 1 33 -5 10 -16 26 -13 26 4 0
17 -47 20 -70 5z"/>
<path d="M1445 780 c-3 -5 -2 -10 4 -10 5 0 13 5 16 10 3 6 2 10 -4 10 -5 0
-13 -4 -16 -10z"/>
<path d="M110 772 c-14 -7 -26 -32 -14 -32 13 0 44 21 44 30 0 11 -8 12 -30 2z"/>
<path d="M764 771 c3 -5 15 -7 26 -4 28 7 25 13 -6 13 -14 0 -23 -4 -20 -9z"/>
<path d="M920 771 c0 -6 10 -11 23 -11 18 0 19 -2 7 -10 -12 -8 -10 -10 10
-10 14 0 32 5 40 11 12 9 11 10 -7 6 -12 -3 -23 -1 -25 3 -5 13 -48 22 -48 11z"/>
<path d="M1645 768 c11 -6 28 -20 37 -32 10 -11 18 -16 18 -10 0 15 -44 54
-61 54 -9 -1 -7 -5 6 -12z"/>
<path d="M830 760 c8 -5 22 -10 30 -10 13 0 13 1 0 10 -8 5 -22 10 -30 10 -13
0 -13 -1 0 -10z"/>
<path d="M888 753 c7 -3 16 -2 19 1 4 3 -2 6 -13 5 -11 0 -14 -3 -6 -6z"/>
<path d="M1068 753 c7 -3 16 -2 19 1 4 3 -2 6 -13 5 -11 0 -14 -3 -6 -6z"/>
<path d="M728 743 c6 -2 18 -2 25 0 6 3 1 5 -13 5 -14 0 -19 -2 -12 -5z"/>
<path d="M1093 743 c-38 -7 -26 -23 18 -23 28 0 39 4 37 13 -5 13 -22 17 -55
10z"/>
<path d="M4320 740 c0 -5 5 -10 10 -10 6 0 10 5 10 10 0 6 -4 10 -10 10 -5 0
-10 -4 -10 -10z"/>
<path d="M240 730 c0 -5 5 -10 10 -10 6 0 10 5 10 10 0 6 -4 10 -10 10 -5 0
-10 -4 -10 -10z"/>
<path d="M1180 730 c0 -5 7 -10 15 -10 8 0 15 5 15 10 0 6 -7 10 -15 10 -8 0
-15 -4 -15 -10z"/>
<path d="M4226 719 c20 -22 34 -24 34 -5 0 7 -11 16 -25 19 -25 4 -25 4 -9
-14z"/>
<path d="M4355 730 c3 -5 10 -10 16 -10 5 0 9 5 9 10 0 6 -7 10 -16 10 -8 0
-12 -4 -9 -10z"/>
<path d="M1591 711 c-12 -12 -21 -34 -21 -50 0 -24 5 -31 30 -36 36 -8 70 -59
71 -106 0 -34 0 -34 15 11 21 67 20 123 -2 161 -24 42 -63 50 -93 20z m62 -11
c26 -21 45 -79 32 -99 -4 -7 -16 1 -32 19 -13 16 -31 30 -39 30 -15 0 -18 27
-8 54 8 21 16 20 47 -4z"/>
<path d="M790 710 c0 -5 9 -10 20 -10 11 0 20 5 20 10 0 6 -9 10 -20 10 -11 0
-20 -4 -20 -10z"/>
<path d="M977 714 c-9 -9 4 -34 18 -34 8 0 11 8 8 20 -5 20 -15 25 -26 14z"/>
<path d="M3570 700 c0 -5 9 -10 21 -10 11 0 17 5 14 10 -3 6 -13 10 -21 10 -8
0 -14 -4 -14 -10z"/>
<path d="M4278 703 c6 -2 18 -2 25 0 6 3 1 5 -13 5 -14 0 -19 -2 -12 -5z"/>
<path d="M75 692 c-13 -9 -19 -52 -7 -52 5 0 12 12 15 28 6 31 5 34 -8 24z"/>
<path d="M340 690 c-24 -8 -23 -8 8 -9 17 -1 32 4 32 9 0 11 -5 11 -40 0z"/>
<path d="M530 690 c0 -5 6 -10 14 -10 8 0 18 5 21 10 3 6 -3 10 -14 10 -12 0
-21 -4 -21 -10z"/>
<path d="M3665 690 c-4 -6 11 -10 37 -10 31 0 39 3 28 10 -20 13 -57 13 -65 0z"/>
<path d="M3820 684 c0 -9 5 -14 12 -12 18 6 21 28 4 28 -9 0 -16 -7 -16 -16z"/>
<path d="M125 680 c-8 -14 7 -16 50 -9 45 7 45 9 -7 14 -21 2 -40 0 -43 -5z"/>
<path d="M272 673 c5 -25 28 -28 28 -4 0 12 -6 21 -16 21 -9 0 -14 -7 -12 -17z"/>
<path d="M410 680 c0 -5 4 -10 9 -10 6 0 13 5 16 10 3 6 -1 10 -9 10 -9 0 -16
-4 -16 -10z"/>
<path d="M750 680 c0 -5 5 -10 10 -10 6 0 10 5 10 10 0 6 -4 10 -10 10 -5 0
-10 -4 -10 -10z"/>
<path d="M1237 684 c-9 -10 42 -44 66 -44 20 0 53 28 43 37 -9 10 -100 16
-109 7z"/>
<path d="M7 673 c-12 -11 -8 -23 8 -23 8 0 15 7 15 15 0 16 -12 20 -23 8z"/>
<path d="M1500 670 c0 -5 7 -10 15 -10 8 0 15 5 15 10 0 6 -7 10 -15 10 -8 0
-15 -4 -15 -10z"/>
<path d="M4320 671 c0 -5 9 -7 20 -4 11 3 20 7 20 9 0 2 -9 4 -20 4 -11 0 -20
-4 -20 -9z"/>
<path d="M860 650 c-7 -13 -7 -20 -1 -20 6 0 15 9 21 20 7 13 7 20 1 20 -6 0
-15 -9 -21 -20z"/>
<path d="M1070 660 c-24 -8 -23 -8 8 -9 17 -1 32 4 32 9 0 11 -5 11 -40 0z"/>
<path d="M1944 661 c8 -12 85 -35 93 -27 7 7 -27 22 -66 31 -23 5 -31 4 -27
-4z"/>
<path d="M107 643 c-4 -3 -7 -15 -7 -26 0 -16 -5 -19 -30 -13 -37 7 -40 -11
-4 -20 28 -7 48 7 59 44 6 21 -4 30 -18 15z"/>
<path d="M340 640 c0 -5 7 -10 15 -10 8 0 15 5 15 10 0 6 -7 10 -15 10 -8 0
-15 -4 -15 -10z"/>
<path d="M545 640 c-3 -5 1 -10 9 -10 9 0 16 5 16 10 0 6 -4 10 -9 10 -6 0
-13 -4 -16 -10z"/>
<path d="M3785 640 c-3 -6 6 -15 20 -20 33 -13 45 -13 45 0 0 6 9 10 20 10 11
0 20 5 20 10 0 13 -97 13 -105 0z"/>
<path d="M1388 633 c7 -3 16 -2 19 1 4 3 -2 6 -13 5 -11 0 -14 -3 -6 -6z"/>
<path d="M210 620 l-35 -7 35 -1 c19 0 44 3 55 8 l20 9 -20 -1 c-11 0 -36 -4
-55 -8z"/>
<path d="M1917 624 c-4 -4 -7 -14 -7 -23 0 -11 3 -12 11 -4 6 6 10 16 7 23 -2
6 -7 8 -11 4z"/>
<path d="M401 613 c0 -5 4 -17 9 -28 8 -18 9 -17 9 8 1 15 -3 27 -9 27 -5 0
-10 -3 -9 -7z"/>
<path d="M793 604 c-4 -10 1 -22 11 -30 18 -13 106 -16 106 -4 0 11 -68 22
-90 15 -22 -7 -26 5 -8 23 9 9 9 12 0 12 -7 0 -15 -7 -19 -16z"/>
<path d="M958 613 c7 -3 16 -2 19 1 4 3 -2 6 -13 5 -11 0 -14 -3 -6 -6z"/>
<path d="M1078 612 c-21 -2 -38 -8 -38 -14 0 -13 122 -5 160 11 21 9 16 10
-30 8 -30 -1 -72 -3 -92 -5z"/>
<path d="M0 600 c0 -5 5 -10 11 -10 5 0 7 5 4 10 -3 6 -8 10 -11 10 -2 0 -4
-4 -4 -10z"/>
<path d="M1406 595 c-3 -8 -1 -15 4 -15 6 0 10 7 10 15 0 8 -2 15 -4 15 -2 0
-6 -7 -10 -15z"/>
<path d="M350 590 c-11 -7 -6 -10 20 -10 26 0 31 3 20 10 -8 5 -17 10 -20 10
-3 0 -12 -5 -20 -10z"/>
<path d="M1482 579 c11 -17 10 -22 -6 -35 -11 -8 -34 -14 -50 -14 -25 -1 -28
-2 -14 -10 11 -7 25 -7 42 0 20 7 27 6 35 -8 9 -14 10 -12 11 13 0 17 3 40 6
53 5 18 2 22 -15 22 -19 0 -20 -2 -9 -21z"/>
<path d="M158 556 c20 -44 28 -45 34 -6 3 20 0 30 -8 30 -7 0 -19 3 -27 6 -13
5 -13 0 1 -30z"/>
<path d="M1313 583 c9 -2 23 -2 30 0 6 3 -1 5 -18 5 -16 0 -22 -2 -12 -5z"/>
<path d="M975 570 c4 -6 11 -8 16 -5 14 9 11 15 -7 15 -8 0 -12 -5 -9 -10z"/>
<path d="M1010 560 c0 -6 34 -10 83 -10 51 0 77 4 68 9 -19 12 -151 13 -151 1z"/>
<path d="M1556 558 c-9 -5 -16 -19 -16 -31 1 -20 2 -20 11 -4 5 9 18 17 28 17
20 0 51 -30 51 -48 0 -7 5 -12 10 -12 15 0 12 11 -9 46 -21 34 -49 46 -75 32z"/>
<path d="M50 556 c0 -8 61 -12 66 -4 3 4 -11 8 -30 8 -20 0 -36 -2 -36 -4z"/>
<path d="M688 553 c7 -3 16 -2 19 1 4 3 -2 6 -13 5 -11 0 -14 -3 -6 -6z"/>
<path d="M1853 536 c-6 -11 -18 -12 -50 -7 -35 7 -45 5 -59 -11 -22 -23 -6
-45 22 -31 20 10 113 9 177 -3 21 -3 37 -2 37 3 0 12 -45 33 -71 33 -11 0 -22
7 -25 15 -8 19 -21 19 -31 1z"/>
<path d="M40 530 c0 -5 5 -10 11 -10 5 0 7 5 4 10 -3 6 -8 10 -11 10 -2 0 -4
-4 -4 -10z"/>
<path d="M715 530 c3 -5 10 -10 16 -10 5 0 9 5 9 10 0 6 -7 10 -16 10 -8 0
-12 -4 -9 -10z"/>
<path d="M763 533 c9 -2 25 -2 35 0 9 3 1 5 -18 5 -19 0 -27 -2 -17 -5z"/>
<path d="M548 523 c7 -3 16 -2 19 1 4 3 -2 6 -13 5 -11 0 -14 -3 -6 -6z"/>
<path d="M940 520 c0 -4 7 -11 16 -14 21 -8 21 -8 27 8 4 9 -2 14 -19 14 -13
0 -24 -4 -24 -8z"/>
<path d="M1145 520 c4 -6 11 -8 16 -5 14 9 11 15 -7 15 -8 0 -12 -5 -9 -10z"/>
<path d="M626 512 c-3 -5 0 -9 7 -9 7 0 17 -2 24 -4 6 -2 13 1 15 6 4 13 -38
19 -46 7z"/>
<path d="M493 478 c7 -10 15 -18 19 -18 5 0 8 -9 8 -19 0 -21 17 -37 27 -27 3
3 0 12 -7 21 -10 12 -10 15 2 15 8 0 18 -4 24 -10 6 -6 10 -3 11 10 1 12 -4
20 -15 20 -14 0 -14 1 1 13 15 10 10 12 -32 13 -45 0 -48 -1 -38 -18z"/>
<path d="M800 489 c0 -5 5 -7 10 -4 6 3 10 8 10 11 0 2 -4 4 -10 4 -5 0 -10
-5 -10 -11z"/>
<path d="M394 477 c-3 -9 -14 -19 -25 -22 -25 -8 -24 -21 2 -28 13 -4 22 0 26
11 4 9 11 20 17 24 8 5 7 11 -1 19 -10 10 -14 9 -19 -4z"/>
<path d="M735 480 c3 -5 8 -10 11 -10 2 0 4 5 4 10 0 6 -5 10 -11 10 -5 0 -7
-4 -4 -10z"/>
<path d="M348 473 c7 -3 16 -2 19 1 4 3 -2 6 -13 5 -11 0 -14 -3 -6 -6z"/>
<path d="M905 470 c3 -5 13 -10 21 -10 8 0 14 5 14 10 0 6 -9 10 -21 10 -11 0
-17 -4 -14 -10z"/>
<path d="M1017 459 c-14 -8 -16 -14 -6 -25 13 -16 69 -19 69 -4 0 6 -7 10 -15
10 -8 0 -15 7 -15 15 0 17 -8 18 -33 4z"/>
<path d="M80 450 c0 -5 5 -10 10 -10 6 0 10 5 10 10 0 6 -4 10 -10 10 -5 0
-10 -4 -10 -10z"/>
<path d="M124 449 c-3 -5 -2 -9 3 -9 4 0 19 -3 32 -7 16 -4 22 -2 18 4 -9 15
-46 23 -53 12z"/>
<path d="M472 435 c0 -16 2 -22 5 -12 2 9 2 23 0 30 -3 6 -5 -1 -5 -18z"/>
<path d="M690 450 c0 -5 12 -10 28 -9 24 0 25 1 7 9 -27 12 -35 12 -35 0z"/>
<path d="M755 440 c3 -5 8 -10 11 -10 2 0 4 5 4 10 0 6 -5 10 -11 10 -5 0 -7
-4 -4 -10z"/>
<path d="M1390 440 c20 -13 33 -13 25 0 -3 6 -14 10 -23 10 -15 0 -15 -2 -2
-10z"/>
<path d="M30 430 c0 -5 6 -10 14 -10 8 0 18 5 21 10 3 6 -3 10 -14 10 -12 0
-21 -4 -21 -10z"/>
<path d="M1638 408 c-1 -18 0 -52 1 -75 2 -25 -2 -43 -8 -43 -13 0 -34 -75
-27 -98 7 -21 -4 -37 -24 -37 -11 0 -16 -14 -18 -55 l-2 -55 30 60 c17 34 33
84 37 115 3 30 10 61 16 68 15 19 22 152 8 152 -6 0 -12 -15 -13 -32z"/>
<path d="M1480 420 c0 -5 -7 -10 -15 -10 -22 0 -18 -17 5 -23 16 -4 20 0 20
19 0 13 -2 24 -5 24 -3 0 -5 -4 -5 -10z"/>
<path d="M1682 410 c0 -14 2 -19 5 -12 2 6 2 18 0 25 -3 6 -5 1 -5 -13z"/>
<path d="M340 410 c0 -5 5 -10 10 -10 6 0 10 5 10 10 0 6 -4 10 -10 10 -5 0
-10 -4 -10 -10z"/>
<path d="M630 410 c0 -5 7 -10 16 -10 8 0 12 5 9 10 -3 6 -10 10 -16 10 -5 0
-9 -4 -9 -10z"/>
<path d="M250 385 c0 -19 5 -25 21 -25 15 0 19 4 15 16 -3 9 -6 20 -6 25 0 5
-7 9 -15 9 -9 0 -15 -9 -15 -25z"/>
<path d="M290 400 c0 -5 7 -10 15 -10 8 0 15 5 15 10 0 6 -7 10 -15 10 -8 0
-15 -4 -15 -10z"/>
<path d="M380 395 c-7 -8 -23 -15 -36 -15 -12 0 -26 -5 -30 -12 -5 -8 -2 -9
10 -5 10 4 32 7 49 7 18 0 39 5 47 10 13 9 13 11 0 20 -20 13 -25 13 -40 -5z"/>
<path d="M960 399 c0 -5 5 -7 10 -4 6 3 10 8 10 11 0 2 -4 4 -10 4 -5 0 -10
-5 -10 -11z"/>
<path d="M1155 402 c11 -12 33 -15 89 -13 59 2 35 14 -37 18 -41 3 -59 1 -52
-5z"/>
<path d="M1323 403 c9 -2 25 -2 35 0 9 3 1 5 -18 5 -19 0 -27 -2 -17 -5z"/>
<path d="M1050 390 c0 -5 7 -10 16 -10 8 0 12 5 9 10 -3 6 -10 10 -16 10 -5 0
-9 -4 -9 -10z"/>
<path d="M18 383 c-32 -8 -19 -19 38 -29 44 -8 57 -7 61 3 3 7 15 14 27 14 28
2 -52 18 -84 17 -14 0 -33 -2 -42 -5z m82 -13 c0 -5 -9 -10 -20 -10 -11 0 -20
5 -20 10 0 6 9 10 20 10 11 0 20 -4 20 -10z"/>
<path d="M818 383 c17 -2 47 -2 65 0 17 2 3 4 -33 4 -36 0 -50 -2 -32 -4z"/>
<path d="M680 362 c0 -5 16 -9 35 -10 19 -1 35 3 35 8 0 6 -16 10 -35 10 -19
0 -35 -4 -35 -8z"/>
<path d="M1120 360 c-13 -8 -12 -10 3 -10 9 0 17 5 17 10 0 12 -1 12 -20 0z"/>
<path d="M1672 343 c-1 -17 -5 -40 -8 -50 -5 -17 -5 -17 6 0 6 9 9 32 7 50
l-4 32 -1 -32z"/>
<path d="M1000 350 c0 -5 4 -10 9 -10 6 0 13 5 16 10 3 6 -1 10 -9 10 -9 0
-16 -4 -16 -10z"/>
<path d="M1155 343 c-3 -9 9 -13 39 -13 26 0 46 -5 49 -12 4 -10 6 -10 6 0 1
6 9 12 18 12 10 0 13 3 8 9 -16 15 -114 18 -120 4z"/>
<path d="M1368 353 c12 -2 30 -2 40 0 9 3 -1 5 -23 4 -22 0 -30 -2 -17 -4z"/>
<path d="M1467 340 c3 -11 7 -20 9 -20 2 0 4 9 4 20 0 11 -4 20 -9 20 -5 0 -7
-9 -4 -20z"/>
<path d="M0 343 c0 -5 18 -14 40 -20 22 -5 40 -7 40 -2 0 7 -8 10 -62 25 -10
3 -18 1 -18 -3z"/>
<path d="M765 335 c-12 -10 -30 -13 -52 -9 -21 4 -33 2 -33 -5 0 -15 113 -14
128 1 29 29 -7 39 -43 13z"/>
<path d="M232 328 c6 -15 80 -18 85 -3 1 6 -18 11 -43 13 -33 2 -45 -1 -42
-10z"/>
<path d="M351 326 c-7 -8 -31 -19 -54 -25 l-42 -9 55 -1 c35 0 50 3 41 8 -11
7 -10 11 5 19 10 6 16 13 13 16 -3 4 -12 0 -18 -8z"/>
<path d="M400 331 c0 -15 16 -22 34 -15 25 9 19 24 -9 24 -14 0 -25 -4 -25 -9z"/>
<path d="M850 325 c7 -8 21 -15 32 -15 17 0 18 3 8 15 -7 8 -21 15 -32 15 -17
0 -18 -3 -8 -15z"/>
<path d="M1325 330 c-17 -8 -18 -9 -2 -11 9 -1 23 -2 30 -3 6 -1 11 -12 9 -25
-1 -15 2 -21 10 -18 7 2 12 9 11 14 -1 5 7 15 19 22 18 11 19 10 14 -7 -5 -13
-1 -22 10 -26 23 -9 28 -2 20 30 -7 24 -10 26 -46 20 -25 -4 -40 -2 -40 4 0
12 -8 12 -35 0z"/>
<path d="M120 310 c0 -6 21 -10 47 -10 25 0 44 3 41 6 -10 10 -88 13 -88 4z"/>
<path d="M1892 296 c2 -16 9 -31 17 -34 10 -3 11 2 6 19 -12 39 -27 48 -23 15z"/>
<path d="M1005 299 c-9 -14 12 -29 40 -28 14 0 16 2 5 6 -8 3 -20 12 -27 20
-8 10 -13 11 -18 2z"/>
<path d="M1257 304 c-12 -12 4 -24 34 -24 31 0 39 14 13 24 -20 8 -39 8 -47 0z"/>
<path d="M1465 301 c-3 -5 -1 -12 5 -16 5 -3 10 1 10 9 0 18 -6 21 -15 7z"/>
<path d="M0 290 c0 -5 6 -10 14 -10 8 0 18 5 21 10 3 6 -3 10 -14 10 -12 0
-21 -4 -21 -10z"/>
<path d="M620 281 c0 -12 5 -21 10 -21 6 0 10 6 10 14 0 8 -4 18 -10 21 -5 3
-10 -3 -10 -14z"/>
<path d="M795 290 c3 -5 14 -10 23 -10 15 0 15 2 2 10 -20 13 -33 13 -25 0z"/>
<path d="M1135 290 c3 -5 15 -10 26 -10 10 0 19 5 19 10 0 6 -12 10 -26 10
-14 0 -23 -4 -19 -10z"/>
<path d="M58 283 c6 -2 18 -2 25 0 6 3 1 5 -13 5 -14 0 -19 -2 -12 -5z"/>
<path d="M673 275 c0 -8 6 -15 14 -15 7 0 13 7 13 15 0 8 -6 15 -13 15 -8 0
-14 -7 -14 -15z"/>
<path d="M862 273 c2 -9 22 -23 46 -32 23 -8 42 -21 42 -29 0 -7 -4 -11 -9 -8
-5 3 -14 -1 -21 -9 -10 -12 -9 -16 3 -21 10 -3 13 -12 9 -22 -5 -14 -3 -15 10
-4 9 7 19 24 22 37 5 19 13 25 34 26 22 0 18 3 -23 20 -27 11 -56 29 -64 39
-17 25 -54 27 -49 3z"/>
<path d="M935 280 c3 -5 10 -10 16 -10 5 0 9 5 9 10 0 6 -7 10 -16 10 -8 0
-12 -4 -9 -10z"/>
<path d="M190 270 c0 -5 7 -10 15 -10 8 0 15 5 15 10 0 6 -7 10 -15 10 -8 0
-15 -4 -15 -10z"/>
<path d="M10 257 c0 -14 46 -27 99 -27 36 0 13 18 -29 24 -19 2 -43 7 -52 11
-12 5 -18 2 -18 -8z"/>
<path d="M108 263 c7 -3 16 -2 19 1 4 3 -2 6 -13 5 -11 0 -14 -3 -6 -6z"/>
<path d="M325 260 c-3 -5 1 -10 9 -10 9 0 16 5 16 10 0 6 -4 10 -9 10 -6 0
-13 -4 -16 -10z"/>
<path d="M1469 252 c-3 -9 -25 -13 -68 -13 -80 -1 -69 -21 12 -23 61 -1 71 4
65 31 -3 12 -6 14 -9 5z"/>
<path d="M1650 248 c-1 -7 -5 -32 -9 -56 -5 -24 -5 -40 -1 -35 10 10 25 103
16 103 -3 0 -6 -6 -6 -12z"/>
<path d="M520 236 c36 -14 50 -12 50 5 0 5 -19 9 -42 8 l-43 -1 35 -12z"/>
<path d="M1165 233 c-60 -5 -86 -13 -80 -23 6 -9 56 -7 132 6 43 7 51 25 10
22 -12 -1 -40 -3 -62 -5z"/>
<path d="M1280 229 c0 -5 5 -7 10 -4 6 3 10 8 10 11 0 2 -4 4 -10 4 -5 0 -10
-5 -10 -11z"/>
<path d="M1892 229 c2 -7 10 -15 17 -17 8 -3 12 1 9 9 -2 7 -10 15 -17 17 -8
3 -12 -1 -9 -9z"/>
<path d="M824 222 c-14 -10 -26 -42 -14 -42 5 0 12 9 15 21 5 14 13 19 26 16
10 -3 19 -1 19 4 0 11 -31 12 -46 1z"/>
<path d="M50 210 c0 -5 10 -10 23 -11 21 -1 21 -1 -3 -9 -30 -9 -16 -16 50
-24 42 -6 44 -5 25 9 -11 9 -25 13 -33 10 -7 -2 -10 0 -7 5 3 6 16 10 28 11
21 0 21 1 2 9 -28 12 -85 12 -85 0z"/>
<path d="M175 210 c-3 -5 -1 -18 4 -27 6 -11 11 -13 11 -5 0 7 5 10 10 7 17
-11 32 5 19 21 -13 16 -35 18 -44 4z"/>
<path d="M730 206 c0 -11 -14 -16 -50 -18 -28 -2 -49 -7 -48 -13 3 -12 78 -7
94 6 6 5 14 6 17 2 4 -3 7 3 7 15 0 12 -4 22 -10 22 -5 0 -10 -7 -10 -14z"/>
<path d="M378 198 c9 -9 15 -9 24 0 9 9 7 12 -12 12 -19 0 -21 -3 -12 -12z"/>
<path d="M1306 195 c4 -10 0 -15 -12 -16 -11 -1 -3 -5 16 -9 40 -10 67 1 30
11 -25 7 -25 7 3 8 37 1 25 21 -13 21 -22 0 -28 -4 -24 -15z"/>
<path d="M432 186 c9 -9 18 -11 30 -5 10 5 30 6 44 3 19 -5 25 -4 20 5 -4 6
-30 11 -57 11 -42 0 -48 -2 -37 -14z"/>
<path d="M880 190 c0 -5 5 -10 11 -10 5 0 7 5 4 10 -3 6 -8 10 -11 10 -2 0 -4
-4 -4 -10z"/>
<path d="M1916 185 c-3 -8 -1 -15 3 -15 5 0 11 7 15 15 3 8 1 15 -3 15 -5 0
-11 -7 -15 -15z"/>
<path d="M540 170 c0 -5 7 -10 16 -10 8 0 12 5 9 10 -3 6 -10 10 -16 10 -5 0
-9 -4 -9 -10z"/>
<path d="M1048 173 c-30 -8 -20 -23 15 -24 l32 -1 -34 -8 c-41 -10 -62 -4 -54
16 3 8 0 14 -6 14 -6 0 -11 -9 -11 -20 0 -11 -4 -20 -10 -20 -5 0 -7 -7 -4
-15 5 -13 -3 -15 -49 -11 -30 2 -61 0 -69 -5 -8 -6 -9 -9 -1 -9 6 0 14 -8 16
-17 3 -13 5 -14 6 -3 1 12 12 14 52 11 34 -2 55 2 67 12 21 19 122 34 122 18
0 -11 5 -9 57 17 30 16 46 15 37 0 -6 -9 -3 -9 9 0 9 8 20 11 25 9 4 -3 14 -2
21 3 9 5 -4 10 -37 15 -28 4 -56 4 -61 0 -6 -3 -24 1 -40 10 -30 15 -50 17
-83 8z"/>
<path d="M0 145 c0 -24 3 -24 90 -7 39 8 42 10 20 15 -14 3 -44 8 -67 10 -39
4 -43 2 -43 -18z"/>
<path d="M828 163 c7 -3 16 -2 19 1 4 3 -2 6 -13 5 -11 0 -14 -3 -6 -6z"/>
<path d="M287 128 c-5 -17 0 -28 16 -40 25 -20 47 -23 47 -7 0 6 -7 9 -15 5
-9 -3 -19 3 -25 14 -11 21 -5 24 34 20 11 -1 17 3 14 12 -3 7 -18 14 -35 16
-25 2 -32 -1 -36 -20z"/>
<path d="M773 144 c-20 -8 -15 -24 6 -24 10 0 22 -7 25 -16 5 -14 7 -14 22 0
8 9 22 16 30 16 8 0 14 5 14 10 0 6 -10 10 -22 10 -13 0 -32 2 -43 5 -11 2
-26 2 -32 -1z"/>
<path d="M703 133 c-27 -5 -28 -7 -7 -38 9 -14 24 -25 34 -25 10 0 20 -4 22
-9 7 -20 53 -21 76 -3 l23 18 -46 -1 c-49 -2 -66 12 -58 46 5 19 0 21 -44 12z"/>
<path d="M1596 71 c-29 -64 -30 -71 -17 -71 17 0 81 63 81 79 -1 11 -9 6 -25
-14 -27 -33 -34 -19 -15 31 20 52 3 34 -24 -25z"/>
<path d="M443 108 c-10 -17 7 -23 51 -20 61 5 61 27 0 27 -25 0 -48 -3 -51 -7z"/>
<path d="M560 110 c0 -5 9 -10 21 -10 11 0 17 5 14 10 -3 6 -13 10 -21 10 -8
0 -14 -4 -14 -10z"/>
<path d="M1461 106 c-10 -12 -10 -19 0 -38 l12 -23 10 22 c6 13 6 27 0 38 -8
14 -11 15 -22 1z"/>
<path d="M0 91 c0 -14 5 -19 15 -14 17 6 15 25 -3 31 -7 2 -12 -5 -12 -17z"/>
<path d="M193 100 c-36 -15 -27 -20 33 -20 49 0 55 2 44 15 -14 17 -43 18 -77
5z"/>
<path d="M65 90 c3 -5 10 -10 16 -10 5 0 9 5 9 10 0 6 -7 10 -16 10 -8 0 -12
-4 -9 -10z"/>
<path d="M110 85 c0 -5 5 -17 10 -25 8 -13 10 -12 10 3 0 9 7 17 15 17 8 0 15
4 15 9 0 5 -11 8 -25 7 -14 0 -25 -5 -25 -11z"/>
<path d="M628 93 c7 -3 16 -2 19 1 4 3 -2 6 -13 5 -11 0 -14 -3 -6 -6z"/>
<path d="M1073 66 c-3 -31 0 -34 27 -38 34 -5 41 7 10 15 -17 4 -19 11 -14 31
4 18 2 26 -7 26 -9 0 -15 -13 -16 -34z"/>
<path d="M1368 93 c6 -2 18 -2 25 0 6 3 1 5 -13 5 -14 0 -19 -2 -12 -5z"/>
<path d="M1145 80 c-3 -5 -2 -10 4 -10 5 0 13 5 16 10 3 6 2 10 -4 10 -5 0
-13 -4 -16 -10z"/>
<path d="M610 59 c0 -5 17 -9 38 -9 43 0 64 -11 60 -31 -2 -11 22 -15 130 -17
88 -2 132 0 132 7 0 10 -162 18 -209 11 -8 -1 -21 6 -27 15 -7 9 -30 19 -51
21 -21 3 -46 6 -55 8 -10 2 -18 0 -18 -5z"/>
<path d="M890 56 c0 -9 40 -13 46 -5 3 5 -6 9 -20 9 -14 0 -26 -2 -26 -4z"/>
<path d="M340 41 c0 -5 14 -11 30 -13 20 -3 30 0 30 9 0 8 -12 13 -30 13 -16
0 -30 -4 -30 -9z"/>
<path d="M830 39 c0 -5 5 -7 10 -4 6 3 10 8 10 11 0 2 -4 4 -10 4 -5 0 -10 -5
-10 -11z"/>
<path d="M990 40 c0 -5 7 -10 15 -10 8 0 15 5 15 10 0 6 -7 10 -15 10 -8 0
-15 -4 -15 -10z"/>
<path d="M185 30 c-11 -4 -38 -5 -59 -2 -26 3 -37 2 -32 -6 11 -18 63 -24 84
-11 16 10 26 10 47 1 15 -7 31 -10 36 -6 13 7 0 26 -14 21 -7 -2 -19 -1 -27 3
-8 4 -24 4 -35 0z"/>
<path d="M15 19 c-11 -4 -18 -8 -15 -9 23 -7 41 -7 45 0 8 13 -8 18 -30 9z"/>
<path d="M415 20 c3 -5 10 -10 16 -10 5 0 9 5 9 10 0 6 -7 10 -16 10 -8 0 -12
-4 -9 -10z"/>
<path d="M469 19 c-6 -3 8 -7 32 -7 24 -1 77 -3 117 -6 55 -4 72 -2 69 7 -4
13 -197 19 -218 6z"/>
<path d="M1174 15 c11 -8 31 -15 45 -15 34 0 15 16 -29 24 -33 7 -34 6 -16 -9z"/>
<path d="M285 10 c3 -5 10 -10 16 -10 5 0 9 5 9 10 0 6 -7 10 -16 10 -8 0 -12
-4 -9 -10z"/>
<path d="M998 3 c6 -2 18 -2 25 0 6 3 1 5 -13 5 -14 0 -19 -2 -12 -5z"/>
</g>
</svg>
