<?xml version="1.0" standalone="no"?>
<!DOCTYPE svg PUBLIC "-//W3C//DTD SVG 20010904//EN"
 "http://www.w3.org/TR/2001/REC-SVG-20010904/DTD/svg10.dtd">
<svg version="1.0" xmlns="http://www.w3.org/2000/svg"
 width="256.000000pt" height="256.000000pt" viewBox="0 0 256.000000 256.000000"
 preserveAspectRatio="xMidYMid meet">

<g transform="translate(0.000000,256.000000) scale(0.100000,-0.100000)"
fill="#000000" stroke="none">
<path d="M1118 2540 c-7 -11 -18 -20 -24 -20 -15 0 -102 -89 -110 -112 -3 -10
-10 -16 -15 -13 -5 4 -9 -1 -9 -10 0 -9 -4 -13 -10 -10 -6 4 -10 -5 -10 -19 0
-16 -6 -26 -15 -26 -8 0 -15 -7 -15 -15 0 -8 -5 -15 -12 -15 -6 0 -8 -3 -5 -7
4 -3 -1 -16 -12 -27 -28 -31 -44 -124 -36 -214 7 -86 31 -182 44 -182 10 0 9
-26 -2 -36 -3 -4 -12 -2 -19 3 -7 6 -21 10 -30 10 -27 0 -23 -68 8 -128 30
-60 41 -60 18 -1 -18 45 -13 89 11 89 18 0 19 -2 1 -30 -20 -31 -4 -70 26 -65
20 3 22 8 19 38 -3 19 -5 62 -5 95 l-1 60 35 3 c19 2 39 7 45 11 17 14 93 22
100 11 3 -5 -1 -10 -9 -10 -19 0 -20 -5 -4 -33 18 -35 31 -42 68 -41 19 1 42
-2 50 -7 13 -7 13 -8 -1 -9 -14 0 -47 -27 -149 -124 -14 -12 -33 -26 -43 -29
-9 -4 -20 -15 -23 -24 -3 -10 -10 -26 -15 -36 -8 -14 -4 -31 15 -68 19 -35 26
-64 26 -104 0 -31 4 -54 9 -51 4 3 7 -6 5 -20 -3 -33 -14 -44 -14 -16 0 27
-18 29 -28 3 -10 -27 -2 -162 9 -155 5 3 9 -11 9 -30 0 -20 -5 -36 -11 -36 -7
0 -9 10 -7 25 3 13 1 22 -3 19 -5 -3 -9 -15 -9 -27 0 -16 -11 -29 -36 -42 -52
-28 -66 -53 -54 -95 12 -42 12 -63 0 -35 -6 14 -9 1 -9 -44 -1 -35 -3 -62 -6
-59 -12 11 -16 116 -5 123 6 4 8 20 5 39 -5 24 3 55 28 119 34 85 34 103 3 71
-19 -19 -21 -28 -3 -19 6 4 1 -3 -13 -14 -14 -11 -30 -21 -35 -21 -16 0 -65
-81 -65 -106 0 -8 -4 -14 -8 -14 -9 0 -42 -69 -42 -87 0 -6 -7 -17 -17 -24
-14 -13 -15 -12 -6 6 6 11 20 44 31 72 l21 53 -26 -2 c-15 -2 -32 -13 -42 -28
-8 -14 -20 -28 -25 -32 -5 -3 -6 -36 -3 -75 4 -48 3 -63 -4 -50 -6 9 -11 42
-12 73 -2 44 2 58 16 69 10 7 14 16 9 19 -5 3 -22 -23 -39 -57 -59 -124 -64
-132 -59 -112 6 32 37 117 53 149 11 24 12 27 0 18 -13 -12 -35 -56 -57 -116
-6 -16 -13 -27 -15 -24 -3 2 4 29 15 59 23 62 23 59 11 59 -5 0 -15 -21 -22
-46 -17 -55 -43 -85 -29 -32 16 58 19 88 9 88 -5 0 -9 -12 -9 -27 0 -16 -7
-37 -15 -47 -14 -18 -14 -16 -11 22 2 24 -1 39 -6 36 -5 -3 -7 -12 -4 -20 3
-7 1 -16 -5 -19 -5 -4 -7 -17 -5 -31 3 -14 1 -22 -5 -19 -5 4 -7 11 -4 16 9
14 -41 11 -54 -4 -8 -10 -7 -14 4 -14 8 0 11 5 8 10 -3 6 -1 7 6 3 9 -6 9 -11
0 -22 -8 -10 -8 -14 0 -14 18 0 26 4 23 13 -1 4 7 3 18 -3 23 -12 27 -22 6
-14 -8 3 -17 0 -21 -6 -5 -7 -17 -5 -41 10 -47 27 -55 25 -19 -6 22 -19 24
-23 7 -14 -28 14 -48 4 -31 -16 6 -8 9 -15 5 -15 -25 -5 -33 -3 -48 15 -9 12
-20 17 -25 12 -4 -5 -2 -11 5 -13 6 -3 12 -9 12 -14 0 -6 12 -21 28 -34 15
-13 21 -25 14 -25 -7 0 -15 7 -18 15 -10 24 -64 -19 -57 -45 4 -15 1 -18 -15
-15 -21 4 -23 -9 -7 -35 7 -11 1 -10 -20 4 -25 16 -28 16 -16 3 12 -15 12 -20
-1 -35 -9 -9 -13 -23 -10 -31 3 -10 0 -12 -13 -7 -14 5 -16 4 -6 -8 6 -7 8
-22 4 -31 -4 -12 -3 -16 4 -12 6 4 13 -3 16 -14 3 -12 10 -18 16 -14 6 3 11
-1 11 -9 0 -21 -10 -20 -26 2 -8 10 -13 12 -14 5 0 -7 -7 -13 -15 -13 -8 0
-15 -8 -15 -17 0 -14 2 -15 9 -5 6 11 13 7 30 -14 11 -14 21 -31 21 -35 0 -14
-16 -10 -31 7 -11 14 -13 14 -22 -2 -7 -13 -7 -19 1 -22 7 -2 10 -8 6 -13 -3
-5 2 -9 10 -9 8 0 18 -5 22 -12 5 -7 3 -8 -7 -3 -8 5 -7 0 3 -12 22 -24 24
-40 3 -23 -8 6 -18 9 -24 6 -5 -3 -12 0 -14 6 -4 10 -6 10 -6 0 -1 -7 -6 -10
-13 -6 -6 4 -8 3 -5 -4 4 -5 15 -9 25 -8 10 2 24 -9 34 -26 21 -34 24 -60 4
-33 -12 16 -16 17 -29 6 -9 -7 -22 -9 -28 -5 -8 5 -11 1 -7 -13 3 -13 -1 -24
-14 -32 -10 -6 -17 -15 -14 -20 3 -4 -9 -18 -27 -31 -18 -14 -26 -17 -18 -7
12 15 9 21 -11 18 -12 -2 -10 7 8 35 15 22 15 30 4 64 -12 36 -11 42 5 60 18
20 18 21 0 34 -17 12 -21 12 -31 -2 -6 -9 -16 -12 -24 -7 -10 6 -9 10 4 17 9
5 16 14 16 19 0 6 -5 7 -10 4 -6 -3 -10 -1 -10 4 0 6 6 11 13 11 9 0 9 2 -1 9
-8 4 -13 12 -13 17 1 5 -10 9 -24 10 l-25 1 0 -263 0 -264 48 0 47 0 -3 71
c-5 97 3 135 31 144 42 13 47 13 56 -3 9 -18 3 -82 -8 -82 -3 0 -20 -9 -38
-19 -29 -18 -31 -22 -20 -45 6 -13 15 -22 18 -20 4 2 9 -6 13 -19 3 -15 13
-22 31 -23 15 -1 24 1 21 4 -10 9 25 41 39 36 7 -3 15 5 19 18 7 22 7 22 15 3
7 -16 2 -23 -27 -36 -19 -9 -31 -19 -26 -22 5 -3 188 -6 407 -6 288 -1 397 1
392 9 -4 7 3 14 16 17 22 6 22 7 3 14 -16 6 -15 8 8 8 14 1 35 -2 45 -6 16 -6
15 -8 -7 -14 -22 -6 -20 -7 12 -8 20 -1 40 -6 43 -11 4 -7 251 -10 716 -10
l709 0 0 270 0 270 -25 6 c-14 3 -33 3 -42 -2 -10 -4 -38 -8 -63 -10 l-45 -2
0 41 c0 51 -10 127 -24 183 -24 96 -93 219 -117 210 -8 -3 -11 0 -8 8 3 7 -4
20 -15 30 -16 14 -24 16 -43 6 -22 -11 -22 -11 -3 5 29 23 1 39 -32 18 -14
-10 -23 -11 -23 -4 0 6 5 11 10 11 6 0 10 5 10 11 0 6 -7 8 -16 5 -8 -3 -22 1
-30 9 -21 21 -79 19 -101 -3 -10 -10 -27 -24 -38 -32 -19 -15 -19 -14 -2 10
23 33 21 45 -9 58 -19 9 -24 9 -18 0 5 -8 2 -9 -10 -5 -10 4 -27 7 -37 7 -11
0 -18 4 -15 8 7 12 -40 36 -112 57 -59 17 -67 23 -101 74 -84 127 -90 179 -36
288 30 60 40 72 63 75 25 3 27 7 29 50 1 27 8 72 16 100 25 90 29 110 18 103
-7 -4 -8 1 -4 11 5 14 2 16 -15 12 -18 -5 -22 -2 -22 16 0 12 5 27 10 32 10
10 11 47 10 261 0 12 -5 25 -10 28 -5 3 -7 12 -4 20 3 7 -4 23 -17 36 -19 19
-21 26 -10 54 14 39 14 59 -1 25 l-10 -25 -10 25 c-14 36 -130 134 -196 167
-31 15 -58 31 -60 35 -2 4 -64 8 -138 8 -123 0 -135 -2 -146 -20z m109 -176
c12 -8 33 -14 45 -15 13 0 37 -6 53 -12 26 -11 30 -17 33 -57 2 -36 0 -42 -10
-32 -17 17 -31 15 -24 -4 5 -12 2 -15 -11 -10 -9 4 -20 1 -25 -6 -6 -9 -7 -5
-3 10 8 28 -8 29 -35 2 -24 -24 -26 -40 -5 -40 11 0 13 -5 6 -17 -5 -10 -13
-31 -18 -48 -8 -29 -11 -30 -76 -36 -70 -6 -122 -32 -122 -60 0 -19 -15 -29
-48 -29 -20 0 -30 -7 -38 -26 -12 -34 -59 -90 -59 -72 0 7 6 22 14 33 7 11 13
22 13 25 -1 11 26 86 34 95 5 5 9 17 9 28 0 10 4 16 9 12 5 -3 9 8 9 24 -1 17
-5 28 -11 24 -5 -3 -4 4 2 15 6 11 11 35 11 52 0 119 148 205 247 144z m153
-74 c0 -5 -4 -10 -10 -10 -5 0 -10 5 -10 10 0 6 5 10 10 10 6 0 10 -4 10 -10z
m-10 -157 c0 -10 -4 -24 -9 -32 -12 -19 -24 3 -16 29 8 25 25 26 25 3z m-245
-133 c-3 -5 -14 -10 -24 -10 -9 0 -26 -7 -37 -15 -10 -8 -27 -15 -36 -15 -10
0 -18 -5 -18 -12 0 -8 -3 -9 -10 -2 -19 19 1 53 34 57 64 8 97 7 91 -3z m575
-45 c0 -14 -2 -25 -4 -25 -2 0 -6 11 -8 25 -3 14 -1 25 3 25 5 0 9 -11 9 -25z
m-720 7 c0 -13 -12 -22 -22 -16 -10 6 -1 24 13 24 5 0 9 -4 9 -8z m360 -122
c0 -43 -13 -59 -60 -74 -27 -9 -51 -16 -54 -16 -14 0 -4 26 14 38 11 7 20 20
20 30 0 9 10 32 21 51 l21 35 19 -25 c10 -13 19 -31 19 -39z m415 -720 c3 -5
1 -10 -4 -10 -6 0 -11 5 -11 10 0 6 2 10 4 10 3 0 8 -4 11 -10z m309 -74 c-3
-9 -10 -16 -15 -16 -14 0 -11 28 4 33 16 6 19 3 11 -17z m-1357 -48 c-2 -13
-4 -3 -4 22 0 25 2 35 4 23 2 -13 2 -33 0 -45z m30 -90 c-3 -8 -6 -5 -6 6 -1
11 2 17 5 13 3 -3 4 -12 1 -19z m-233 -26 c3 -5 -1 -9 -9 -9 -8 0 -12 4 -9 9
3 4 7 8 9 8 2 0 6 -4 9 -8z m223 -14 c-3 -8 -6 -5 -6 6 -1 11 2 17 5 13 3 -3
4 -12 1 -19z m123 -31 c0 -10 -4 -15 -10 -12 -5 3 -10 18 -10 33 0 21 2 24 10
12 5 -8 10 -23 10 -33z m510 20 c0 -2 -10 -12 -22 -23 l-23 -19 19 23 c18 21
26 27 26 19z m-1026 -62 c-4 -8 -11 -12 -16 -9 -6 4 -5 10 3 15 19 12 19 11
13 -6z m490 -10 c3 -8 1 -15 -4 -15 -6 0 -10 7 -10 15 0 8 2 15 4 15 2 0 6 -7
10 -15z m-27 -67 c-3 -8 -6 -5 -6 6 -1 11 2 17 5 13 3 -3 4 -12 1 -19z m-542
-38 c-3 -5 -12 -10 -18 -10 -7 0 -6 4 3 10 19 12 23 12 15 0z m17 -36 c-3 -18
-7 -22 -13 -13 -4 7 -3 19 3 26 15 18 16 17 10 -13z m33 -34 c3 -5 1 -10 -4
-10 -6 0 -11 5 -11 10 0 6 2 10 4 10 3 0 8 -4 11 -10z m-18 -72 c-3 -8 -6 -5
-6 6 -1 11 2 17 5 13 3 -3 4 -12 1 -19z m8 -60 c6 -4 2 -8 -7 -8 -10 0 -18 7
-18 17 0 9 3 12 8 7 4 -5 12 -12 17 -16z m-19 -59 c8 -14 16 -95 9 -87 -3 3
-7 20 -10 37 -2 18 -9 39 -16 47 -7 9 -8 14 -1 14 6 0 14 -5 18 -11z m43 -19
c11 -24 11 -24 -3 -6 -9 11 -16 24 -16 30 0 12 5 7 19 -24z m-269 10 c0 -5 -5
-10 -11 -10 -5 0 -7 5 -4 10 3 6 8 10 11 10 2 0 4 -4 4 -10z m125 -130 c3 -5
-1 -10 -10 -10 -9 0 -13 5 -10 10 3 6 8 10 10 10 2 0 7 -4 10 -10z m25 -56 c0
-8 -4 -12 -10 -9 -5 3 -10 10 -10 16 0 5 5 9 10 9 6 0 10 -7 10 -16z m-123
-16 c-3 -8 -6 -5 -6 6 -1 11 2 17 5 13 3 -3 4 -12 1 -19z m190 -55 c-3 -10 -5
-2 -5 17 0 19 2 27 5 18 2 -10 2 -26 0 -35z m30 -5 c-3 -8 -6 -5 -6 6 -1 11 2
17 5 13 3 -3 4 -12 1 -19z m-70 -10 c-3 -8 -6 -5 -6 6 -1 11 2 17 5 13 3 -3 4
-12 1 -19z m-89 -73 c-3 -3 -9 2 -12 12 -6 14 -5 15 5 6 7 -7 10 -15 7 -18z
m1036 9 c9 -3 16 -10 16 -15 0 -6 -9 -5 -21 2 -12 6 -29 9 -39 6 -10 -2 -24
-1 -31 4 -16 10 50 13 75 3z m-174 -18 c0 -3 -4 -8 -10 -11 -5 -3 -10 -1 -10
4 0 6 5 11 10 11 6 0 10 -2 10 -4z"/>
<path d="M1610 2421 c0 -6 4 -13 10 -16 6 -3 7 1 4 9 -7 18 -14 21 -14 7z"/>
<path d="M931 1620 c-8 -4 -21 -6 -29 -2 -10 3 -13 1 -8 -6 4 -7 13 -12 19
-12 16 0 43 18 36 24 -2 3 -11 1 -18 -4z"/>
<path d="M467 1010 c3 -11 7 -20 9 -20 2 0 4 9 4 20 0 11 -4 20 -9 20 -5 0 -7
-9 -4 -20z"/>
<path d="M345 900 c4 -6 11 -8 16 -5 14 9 11 15 -7 15 -8 0 -12 -5 -9 -10z"/>
<path d="M68 668 c-3 -7 -17 -12 -33 -13 -16 0 -30 -6 -33 -12 -7 -22 61 -16
75 7 7 10 9 22 4 25 -5 3 -11 0 -13 -7z"/>
<path d="M115 20 c3 -5 8 -10 11 -10 2 0 4 5 4 10 0 6 -5 10 -11 10 -5 0 -7
-4 -4 -10z"/>
</g>
</svg>
